M48
INCH
T01C0.0200
T02C0.1181
T03C0.0400
T04C0.0300
T05C0.0320
%
T01
X+016500Y-009000
X+016500Y+002000
X-025000Y-007500
X-027750Y+004500
X+000000Y+017000
X+007000Y+018000
X-022750Y+011000
X-022250Y+010500
X-021750Y+010000
X-024250Y+009250
X-009000Y-010500
X-008500Y-007000
X-019500Y-014250
X-000750Y+002000
X-000750Y-007500
X-017000Y-016250
X-017750Y-016750
X-018500Y-017250
X-016500Y-004500
X-016500Y-008000
X-016500Y-011000
X-009500Y+009500
X-018000Y-006500
X-026500Y+002500
X-026000Y+001500
X-025500Y+000500
X-022750Y+009250
T02
X+030409Y+017500
X+030409Y-017500
X-030090Y+017500
X-030090Y-017500
X+016000Y+009500
X+015750Y-001500
X+015250Y-012500
X-005000Y-016500
X-014840Y-016500
X+028000Y+011250
X+028000Y+005750
T03
X+026500Y+015000
X+026500Y+014000
X+026500Y+013000
X+026500Y+009500
X+026500Y+008500
X+026500Y+007500
X+026500Y+004000
X+026500Y+003000
X+026500Y+002000
X+026500Y-001500
X+026500Y-002500
X+026500Y-003500
X+026500Y-007000
X+026500Y-008000
X+026500Y-009000
X+026500Y-012500
X+026500Y-013500
X+026500Y-014500
X+019000Y+015000
X+019000Y+013000
X+019000Y+004000
X+019000Y+002000
X+019000Y-007000
X+019000Y-009000
X+019000Y+007500
X+019000Y+009500
X+019000Y-003500
X+019000Y-001500
X+019000Y-014500
X+019000Y-012500
X-008000Y+015500
X-008000Y+016500
X-008000Y+017500
X-018000Y+015500
X-018000Y+016500
X-018000Y+017500
X-028250Y+014750
X-028250Y+013750
X-011500Y+003500
X-011500Y+002500
X-011500Y+009500
X-011500Y+008500
X-011500Y+007500
X-011500Y+006500
X-011500Y+005500
X-011500Y-001500
X-011500Y-002500
X-011500Y-003500
X-011500Y-004500
X-011500Y-005500
X+023500Y-017500
X+024500Y-017500
X-028500Y+009000
X-028500Y+010000
X+010000Y-017500
X+011000Y-017500
T04
X+024000Y+013000
X+024000Y+017000
X+024000Y+002000
X+024000Y+006000
X+024000Y-009000
X+024000Y-005000
X+024000Y+011500
X+024000Y+007500
X+024000Y+000500
X+024000Y-003500
X+024000Y-010500
X+024000Y-014500
X+016000Y+017000
X+022000Y+017000
X+016000Y+006000
X+022000Y+006000
X+016000Y-005000
X+022000Y-005000
X+016000Y+011500
X+022000Y+011500
X+016000Y+000500
X+022000Y+000500
X+016000Y-010500
X+022000Y-010500
X+012000Y+016000
X+012000Y+015000
X+012000Y+014000
X+012000Y+013000
X+015000Y+013000
X+015000Y+014000
X+015000Y+015000
X+015000Y+016000
X+012000Y+005000
X+012000Y+004000
X+012000Y+003000
X+012000Y+002000
X+015000Y+002000
X+015000Y+003000
X+015000Y+004000
X+015000Y+005000
X+012000Y-006000
X+012000Y-007000
X+012000Y-008000
X+012000Y-009000
X+015000Y-009000
X+015000Y-008000
X+015000Y-007000
X+015000Y-006000
X+009000Y+010500
X+009000Y+009500
X+009000Y+008500
X+009000Y+007500
X+012000Y+007500
X+012000Y+008500
X+012000Y+009500
X+012000Y+010500
X+009000Y-000500
X+009000Y-001500
X+009000Y-002500
X+009000Y-003500
X+012000Y-003500
X+012000Y-002500
X+012000Y-001500
X+012000Y-000500
X+009000Y-011500
X+009000Y-012500
X+009000Y-013500
X+009000Y-014500
X+012000Y-014500
X+012000Y-013500
X+012000Y-012500
X+012000Y-011500
X+010500Y+016500
X+010500Y+012500
X+010500Y+005500
X+010500Y+001500
X+010500Y-005500
X+010500Y-009500
X+007500Y+011000
X+007500Y+007000
X+007500Y+000000
X+007500Y-004000
X+007500Y-011000
X+007500Y-015000
X+005000Y+016000
X+005000Y+015000
X+005000Y+014000
X+005000Y+013000
X+008000Y+013000
X+008000Y+014000
X+008000Y+015000
X+008000Y+016000
X+005000Y+005000
X+005000Y+004000
X+005000Y+003000
X+005000Y+002000
X+008000Y+002000
X+008000Y+003000
X+008000Y+004000
X+008000Y+005000
X+005000Y-006000
X+005000Y-007000
X+005000Y-008000
X+005000Y-009000
X+008000Y-009000
X+008000Y-008000
X+008000Y-007000
X+008000Y-006000
X+002000Y+010500
X+002000Y+009500
X+002000Y+008500
X+002000Y+007500
X+005000Y+007500
X+005000Y+008500
X+005000Y+009500
X+005000Y+010500
X+002000Y-000500
X+002000Y-001500
X+002000Y-002500
X+002000Y-003500
X+005000Y-003500
X+005000Y-002500
X+005000Y-001500
X+005000Y-000500
X+002000Y-011500
X+002000Y-012500
X+002000Y-013500
X+002000Y-014500
X+005000Y-014500
X+005000Y-013500
X+005000Y-012500
X+005000Y-011500
X+003000Y+017000
X+003000Y+013000
X+003000Y+006000
X+003000Y+002000
X+003000Y-005000
X+003000Y-009000
X+000000Y+011500
X+000000Y+007500
X+000000Y+000500
X+000000Y-003500
X+000000Y-010500
X+000000Y-014500
X-003000Y-002500
X-004000Y-002500
X-005000Y-002500
X-006000Y-002500
X-007000Y-002500
X-008000Y-002500
X-009000Y-002500
X-009000Y-005500
X-008000Y-005500
X-007000Y-005500
X-006000Y-005500
X-005000Y-005500
X-004000Y-005500
X-003000Y-005500
X-003000Y+005500
X-004000Y+005500
X-005000Y+005500
X-006000Y+005500
X-007000Y+005500
X-008000Y+005500
X-009000Y+005500
X-009000Y+002500
X-008000Y+002500
X-007000Y+002500
X-006000Y+002500
X-005000Y+002500
X-004000Y+002500
X-003000Y+002500
X-003000Y+011500
X-004000Y+011500
X-005000Y+011500
X-006000Y+011500
X-007000Y+011500
X-008000Y+011500
X-009000Y+011500
X-009000Y+008500
X-008000Y+008500
X-007000Y+008500
X-006000Y+008500
X-005000Y+008500
X-004000Y+008500
X-003000Y+008500
X-003000Y-008500
X-004000Y-008500
X-005000Y-008500
X-006000Y-008500
X-007000Y-008500
X-008000Y-008500
X-009000Y-008500
X-009000Y-011500
X-008000Y-011500
X-007000Y-011500
X-006000Y-011500
X-005000Y-011500
X-004000Y-011500
X-003000Y-011500
X-029000Y+005500
X-029000Y+004500
X-029000Y+003500
X-029000Y+002500
X-029000Y+001500
X-029000Y+000500
X-029000Y-000500
X-029000Y-001500
X-029000Y-002500
X-029000Y-003500
X-029000Y-004500
X-029000Y-005500
X-023000Y-005500
X-023000Y-004500
X-023000Y-003500
X-023000Y-002500
X-023000Y-001500
X-023000Y-000500
X-023000Y+000500
X-023000Y+001500
X-023000Y+002500
X-023000Y+003500
X-023000Y+004500
X-023000Y+005500
X-028000Y-007500
X-024000Y-007500
X-024000Y-010500
X-028000Y-010500
X-028000Y-013500
X-024000Y-013500
X-028000Y-015000
X-024000Y-015000
X-017250Y-012000
X-013250Y-012000
X-017250Y-013250
X-013250Y-013250
X-024000Y-012000
X-028000Y-012000
X-028000Y-009000
X-024000Y-009000
X-006500Y+015500
X-002500Y+015500
X-003000Y+017000
X-002000Y+017000
X-006000Y+017000
X-005000Y+017000
X-002500Y+014500
X-006500Y+014500
X+009500Y+015000
X+009500Y+014000
X+006500Y+009500
X+006500Y+008500
X+006500Y-001500
X+006500Y-002500
X+006500Y-012500
X+006500Y-013500
X+009500Y+004000
X+009500Y+003000
X+009500Y-007000
X+009500Y-008000
X-016500Y+014500
X-012500Y+014500
X-016500Y+015500
X-012500Y+015500
X-016000Y+017000
X-015000Y+017000
X-013000Y+017000
X-012000Y+017000
X-007760Y-016000
X-008840Y-016000
X-009920Y-016000
X-011000Y-016000
X-012080Y-016000
X-008300Y-017000
X-009380Y-017000
X-010460Y-017000
X-011540Y-017000
X-002250Y-012750
X-006250Y-012750
X-025750Y+012250
X-021750Y+012250
X-025750Y+013500
X-021750Y+013500
X-025750Y+014750
X-021750Y+014750
X+014000Y-016500
X+016000Y-016500
X-025750Y+016000
X-021750Y+016000
X-009000Y+000500
X-009000Y-000500
T05
X-019250Y+009500
X-019250Y+008500
X-019250Y+007500
X-019250Y+006500
X-019250Y+005500
X-019250Y+004500
X-019250Y+003500
X-019250Y+002500
X-019250Y+001500
X-019250Y+000500
X-019250Y-000500
X-019250Y-001500
X-019250Y-002500
X-019250Y-003500
X-019250Y-004500
X-019250Y-005500
X-019250Y-006500
X-019250Y-007500
X-019250Y-008500
X-019250Y-009500
X-013250Y-009500
X-013250Y-008500
X-013250Y-007500
X-013250Y-006500
X-013250Y-005500
X-013250Y-004500
X-013250Y-003500
X-013250Y-002500
X-013250Y-001500
X-013250Y-000500
X-013250Y+000500
X-013250Y+001500
X-013250Y+002500
X-013250Y+003500
X-013250Y+004500
X-013250Y+005500
X-013250Y+006500
X-013250Y+007500
X-013250Y+008500
X-013250Y+009500
M30
